<svg width="128" xmlns="http://www.w3.org/2000/svg" data-name="Layer 1" viewBox="0 0 512 512"><ellipse cx="256" cy="268.033" fill="#d9f0ff" rx="207.401" ry="206.147"/><path fill="#b3e0ff" d="M256,61.88611q-7.56738,0-15,.54089c107.541,7.64087,192.40088,96.7688,192.40088,205.6062S348.541,465.99854,241,473.6394q7.43224.52809,15,.54078c114.54443,0,207.40088-92.29517,207.40088-206.147C463.40088,154.18115,370.54443,61.88611,256,61.88611Z"/><path fill="#b3e0ff" d="M302.98438 127.98242a7.48988 7.48988 0 0 1-2.251-.34668 148.09358 148.09358 0 0 0-14.85547-3.834 7.49995 7.49995 0 1 1 2.98828-14.69922 163.50025 163.50025 0 0 1 16.36524 4.22266 7.50134 7.50134 0 0 1-2.24707 14.65722zM100.334 275.5332a7.49944 7.49944 0 0 1-7.5-7.5c0-89.45117 73.19629-162.22461 163.166-162.22461a7.5 7.5 0 0 1 0 15c-81.69922 0-148.166 66.04493-148.166 147.22461A7.49943 7.49943 0 0 1 100.334 275.5332z"/><path fill="#3b3f4d" d="M407.68922,456.5674H104.31078V423.63481a15,15,0,0,1,15-15H392.68922a15,15,0,0,1,15,15Z"/><path fill="#313440" d="M392.68921,408.63477h-30a15,15,0,0,1,15,15v32.93261h30V423.63477A15,15,0,0,0,392.68921,408.63477Z"/><path fill="#4a4f60" d="M452.68922,504.5H59.31078l11.70783-37.41245A15,15,0,0,1,85.334,456.5674H426.666a15,15,0,0,1,14.31541,10.52015Z"/><path fill="#3b3f4d" d="M440.98145,467.0874a15.00012,15.00012,0,0,0-14.31543-10.52h-30a15.00012,15.00012,0,0,1,14.31543,10.52L422.68921,504.5h30Z"/><path fill="#ffe966" d="M377.70336,38.99493l0,0v0c9.45645,24.92058,23.67263,45.41027,40.96305,59.03979l0,0,0,0c-17.29042,13.62952-31.5066,34.11921-40.96305,59.03979v0l0,0c-9.45645-24.92058-23.67262-45.41027-40.963-59.03979l0,0,0,0C354.03074,84.4052,368.24691,63.91551,377.70336,38.99493Z"/><path fill="#ffe236" d="M377.70337,38.99487a167.50355,167.50355,0,0,1-7.5,16.90686c7.529,14.70611,16.884,27.31605,27.61672,37.156a6.77487,6.77487,0,0,1,0,9.954c-10.73269,9.84-20.08772,22.44981-27.61674,37.156a167.50338,167.50338,0,0,1,7.5,16.90674c9.45654-24.92065,23.67261-45.41015,40.96313-59.03979C401.376,84.40527,387.15991,63.91553,377.70337,38.99487Z"/><path fill="#ffe966" d="M479.57015,7.5v0c5.75513,15.16649,14.407,27.63637,24.92982,35.93119l0,0h0c-10.52282,8.29483-19.17469,20.76471-24.92982,35.93119v0c-5.75513-15.16648-14.407-27.63636-24.92982-35.93119h0l0,0C465.16316,35.13639,473.815,22.66651,479.57015,7.5Z"/><path fill="#ffe236" d="M479.57031,7.5h-.00024a98.70628,98.70628,0,0,1-7.49976,15.6012,77.25086,77.25086,0,0,0,13.36126,16.82828,4.78926,4.78926,0,0,1,0,7.00342,77.25289,77.25289,0,0,0-13.36129,16.82833,98.71536,98.71536,0,0,1,7.49976,15.60107h.00024C485.3252,64.19592,493.97705,51.72607,504.5,43.43115,493.97705,35.13635,485.3252,22.6665,479.57031,7.5Z"/><path fill="#3b3f4d" d="M504.5,512H7.5a7.5,7.5,0,0,1,0-15h497a7.5,7.5,0,0,1,0,15Z"/><circle cx="202" cy="196.5" r="7.5" fill="#66c1ff"/><circle cx="307" cy="166.5" r="7.5" fill="#66c1ff"/><circle cx="382" cy="226.5" r="7.5" fill="#66c1ff"/><circle cx="277" cy="286.5" r="7.5" fill="#66c1ff"/><circle cx="277" cy="376.5" r="7.5" fill="#66c1ff"/><circle cx="157" cy="316.5" r="7.5" fill="#66c1ff"/><circle cx="397" cy="346.5" r="7.5" fill="#66c1ff"/><path fill="#4eb7ff" d="M397 339a7.471 7.471 0 0 0-2.63062.48364 7.4898 7.4898 0 0 1 0 14.03272A7.49707 7.49707 0 1 0 397 339zM277 369a7.471 7.471 0 0 0-2.63062.48364 7.4898 7.4898 0 0 1 0 14.03272A7.49707 7.49707 0 1 0 277 369zM277 279a7.471 7.471 0 0 0-2.63062.48364 7.4898 7.4898 0 0 1 0 14.03272A7.49707 7.49707 0 1 0 277 279zM382 219a7.471 7.471 0 0 0-2.63062.48364 7.4898 7.4898 0 0 1 0 14.03272A7.49707 7.49707 0 1 0 382 219zM307 159a7.471 7.471 0 0 0-2.63062.48364 7.4898 7.4898 0 0 1 0 14.03272A7.49707 7.49707 0 1 0 307 159zM202 189a7.471 7.471 0 0 0-2.63062.48364 7.4898 7.4898 0 0 1 0 14.03272A7.49707 7.49707 0 1 0 202 189zM157 309a7.471 7.471 0 0 0-2.63062.48364 7.4898 7.4898 0 0 1 0 14.03272A7.49707 7.49707 0 1 0 157 309z"/></svg>